<svg width="512" height="512" viewBox="0 0 512 512" fill="none" xmlns="http://www.w3.org/2000/svg">
<g clip-path="url(#clip0_2_7)">
<circle cx="256" cy="256" r="241" fill="#334155" stroke="white" stroke-width="30"/>
<path d="M191.344 130.45C195.544 138.15 200.328 147.717 205.694 159.15C211.294 170.35 217.011 182.6 222.844 195.9C228.911 208.967 234.861 222.383 240.694 236.15C246.528 249.917 252.011 262.867 257.144 275C262.278 262.867 267.761 249.917 273.594 236.15C279.428 222.383 285.261 208.967 291.094 195.9C297.161 182.6 302.878 170.35 308.244 159.15C313.844 147.717 318.744 138.15 322.944 130.45H372.644C374.978 146.55 377.078 164.633 378.944 184.7C381.044 204.533 382.794 225.3 384.194 247C385.828 268.467 387.228 290.05 388.394 311.75C389.794 333.45 390.961 353.867 391.894 373H338.694C337.994 349.433 337.061 323.767 335.894 296C334.728 268.233 332.978 240.233 330.644 212C326.444 221.8 321.778 232.65 316.644 244.55C311.511 256.45 306.378 268.35 301.244 280.25C296.344 292.15 291.561 303.583 286.894 314.55C282.228 325.283 278.261 334.5 274.994 342.2H236.844C233.578 334.5 229.611 325.283 224.944 314.55C220.278 303.583 215.378 292.15 210.244 280.25C205.344 268.35 200.328 256.45 195.194 244.55C190.061 232.65 185.394 221.8 181.194 212C178.861 240.233 177.111 268.233 175.944 296C174.778 323.767 173.844 349.433 173.144 373H119.944C120.878 353.867 121.928 333.45 123.094 311.75C124.494 290.05 125.894 268.467 127.294 247C128.928 225.3 130.678 204.533 132.544 184.7C134.644 164.633 136.861 146.55 139.194 130.45H191.344Z" fill="white"/>
</g>
<defs>
<clipPath id="clip0_2_7">
<rect width="512" height="512" fill="white"/>
</clipPath>
</defs>
</svg>
