<svg width="1024" height="1024" viewBox="0 0 1024 1024" fill="none" xmlns="http://www.w3.org/2000/svg">
<g clip-path="url(#clip0_3206_2)">
<circle cx="512" cy="512" r="512" fill="white"/>
<rect width="620" height="700" transform="translate(202 162)" fill="white"/>
<path fill-rule="evenodd" clip-rule="evenodd" d="M732.347 202.262C740.985 201.207 749.752 201.207 758.645 202.262C758.546 202.746 758.281 203.011 757.848 203.059C749.491 202.266 740.99 202.001 732.347 202.262Z" fill="black"/>
<path fill-rule="evenodd" clip-rule="evenodd" d="M519.571 301.92C502.852 318.114 486.117 334.325 469.365 350.554C463.727 345.445 458.414 340.129 453.427 334.608C475.011 312.087 499.849 294.015 527.938 280.394C525.191 287.502 522.401 294.677 519.571 301.92Z" fill="black"/>
<ellipse cx="504.471" cy="312.633" rx="8.41429" ry="7.97468" fill="black"/>
<path fill-rule="evenodd" clip-rule="evenodd" d="M732.347 202.262C740.99 202.001 749.491 202.266 757.848 203.059C740.719 229.882 724.382 257.255 708.838 285.178C693.575 307.779 672.989 323.592 647.077 332.615C640.187 334.957 633.28 337.216 626.357 339.392C627.89 340.036 629.484 340.435 631.139 340.588C637.779 341.12 644.421 341.12 651.062 340.588C657.514 339.372 663.89 337.911 670.188 336.203C673.912 339.133 677.099 342.587 679.751 346.567C672.408 362.934 662.845 377.817 651.062 391.214C649.198 392.121 647.338 392.254 645.483 391.613C646.166 392.162 646.697 392.826 647.077 393.606C645.393 395.429 643.401 396.757 641.1 397.592C640.372 399.318 639.442 400.912 638.311 402.376C638.6 402.92 638.866 403.452 639.108 403.97C608.334 432.268 572.738 452.598 532.321 464.961C551.319 463.001 569.914 459.015 588.105 453.002C597.581 449.449 606.877 445.728 615.997 441.841C593.856 475.028 568.886 505.988 541.087 534.722C535.77 529.136 530.457 523.556 525.149 517.98C537.656 504.936 550.406 492.18 563.401 479.711C563.003 479.445 562.604 479.179 562.206 478.913C549.294 491.49 536.543 504.246 523.954 517.182C521.787 514.454 519.263 512.461 516.383 511.203C519.11 513.371 521.102 515.895 522.36 518.777C495.598 545.149 469.433 571.725 443.864 598.503C439.409 601.891 435.159 605.612 431.113 609.665C421.593 619.721 411.765 629.554 401.627 639.164C398.634 642.151 395.977 645.34 393.658 648.731C379.862 655.155 366.049 661.665 352.218 668.264C342.102 673.866 333.734 681.44 327.116 690.986C320.879 704.784 314.902 718.604 309.185 732.444C307.646 733.049 306.451 734.113 305.599 735.633C302.544 732.577 299.489 729.521 296.434 726.465C295.771 725.916 295.241 726.049 294.841 726.863C298.337 729.83 301.525 733.019 304.404 736.431C301.481 739.487 298.56 742.543 295.637 745.599C296.169 746.131 296.7 746.131 297.231 745.599C301.151 741.203 304.871 737.881 308.388 735.633C302.035 752.604 296.589 769.878 292.051 787.456C278.627 797.094 265.346 806.927 252.206 816.955C252.073 816.689 251.94 816.423 251.807 816.157C271.151 771.87 292.004 728.286 314.365 685.406C319.409 670.954 321.401 656.072 320.342 640.759C321.388 635.609 321.919 630.294 321.936 624.813C322.226 619.17 322.757 613.589 323.529 608.071C335.488 596.639 347.176 584.945 358.594 572.991C358.461 572.725 358.328 572.459 358.195 572.194C347.207 583.32 336.184 594.217 325.123 604.882C324.332 601.198 324.066 597.478 324.326 593.72C328.96 537.139 347.953 486.114 381.306 440.645C381.827 439.691 382.225 439.691 382.501 440.645C381.496 443.484 380.832 446.407 380.509 449.415C378.451 468.024 380.577 486.095 386.884 503.629C387.075 475.18 391.723 447.541 400.83 420.713C401.419 420.817 401.951 420.684 402.424 420.314C424.616 397.98 446.929 375.789 469.365 353.743C482.381 366.499 495.398 379.255 508.414 392.011C509.227 391.611 509.361 391.08 508.812 390.417C495.928 377.925 483.31 365.169 470.959 352.148C486.648 335.921 502.587 319.975 518.774 304.312C514.267 318.082 511.478 332.167 510.406 346.567C517.327 333.236 525.429 320.745 534.712 309.096C539.762 315.086 545.34 320.269 551.447 324.642C545.639 319.235 540.326 313.521 535.509 307.501C585.504 243.816 651.117 208.737 732.347 202.262Z" fill="black"/>
<ellipse cx="426.086" cy="585.544" rx="54.0286" ry="24.8101" fill="black"/>
<ellipse cx="377.371" cy="614.785" rx="54.0286" ry="24.8101" fill="black"/>
<ellipse cx="372.943" cy="626.304" rx="37.2" ry="26.5823" fill="black"/>
<path fill-rule="evenodd" clip-rule="evenodd" d="M686.126 250.895C686.87 251.747 687.136 252.809 686.923 254.084C685.329 254.084 683.735 254.084 682.141 254.084C683.293 252.838 684.621 251.775 686.126 250.895Z" fill="black"/>
<path fill-rule="evenodd" clip-rule="evenodd" d="M704.455 237.342C703.21 237.527 702.148 238.059 701.267 238.936C698.427 236.515 695.24 234.522 691.704 232.957C679.576 231.807 673.599 237.254 673.774 249.301C674.23 251.008 674.894 252.602 675.766 254.084C674.651 255.192 673.323 255.99 671.782 256.476C669.618 254.671 668.423 252.279 668.195 249.301C667.06 242.322 669.052 236.476 674.172 231.761C677.345 228.515 681.196 227.187 685.728 227.775C692.469 227.595 698.313 229.721 703.26 234.153C703.89 235.145 704.289 236.208 704.455 237.342Z" fill="black"/>
<path fill-rule="evenodd" clip-rule="evenodd" d="M694.892 242.923C690.245 245.379 685.729 248.037 681.344 250.895C678.764 246.732 679.561 243.144 683.735 240.132C686.391 239.601 689.048 239.601 691.704 240.132C693.158 240.658 694.22 241.588 694.892 242.923Z" fill="black"/>
<path fill-rule="evenodd" clip-rule="evenodd" d="M713.221 232.558C715.814 230.189 718.736 228.196 721.987 226.579C722.65 226.03 723.181 226.163 723.581 226.977C720.302 229.204 716.848 231.064 713.221 232.558Z" fill="black"/>
<path fill-rule="evenodd" clip-rule="evenodd" d="M681.344 343.378C680.853 343.467 680.454 343.732 680.149 344.175C677.36 341.385 674.571 338.595 671.781 335.804C672.225 335.499 672.49 335.1 672.578 334.608C677.906 332.408 682.82 329.484 687.321 325.838C685.748 331.755 683.756 337.602 681.344 343.378Z" fill="black"/>
<path fill-rule="evenodd" clip-rule="evenodd" d="M451.833 336.203C457.516 341.489 463.095 346.937 468.568 352.547C446.431 374.163 424.515 396.088 402.823 418.321C402.453 417.848 402.32 417.316 402.424 416.727C413.436 386.44 429.905 359.599 451.833 336.203Z" fill="black"/>
<path fill-rule="evenodd" clip-rule="evenodd" d="M672.578 334.608C672.49 335.1 672.224 335.499 671.781 335.804C674.571 338.595 677.36 341.385 680.149 344.175C680.454 343.732 680.853 343.467 681.344 343.378C681.217 344.696 680.686 345.759 679.75 346.567C677.099 342.587 673.911 339.133 670.188 336.203C670.564 335.082 671.361 334.55 672.578 334.608Z" fill="black"/>
<path fill-rule="evenodd" clip-rule="evenodd" d="M651.062 391.214C647.439 395.803 643.454 400.056 639.108 403.97C638.866 403.452 638.6 402.92 638.311 402.376C639.442 400.912 640.372 399.318 641.1 397.592C643.401 396.757 645.393 395.428 647.077 393.606C646.697 392.826 646.166 392.162 645.483 391.613C647.338 392.254 649.198 392.121 651.062 391.214Z" fill="black"/>
<path fill-rule="evenodd" clip-rule="evenodd" d="M462.193 447.023C458.208 452.338 454.224 457.653 450.239 462.968C449.763 462.781 449.498 462.382 449.442 461.772C450.766 454.331 455.016 449.415 462.193 447.023Z" fill="black"/>
<path fill-rule="evenodd" clip-rule="evenodd" d="M417.566 519.574C430.134 532.547 442.884 545.436 455.817 558.242C455.021 558.773 454.224 558.773 453.427 558.242C441.025 545.968 428.805 533.61 416.769 521.169C416.632 520.378 416.898 519.847 417.566 519.574Z" fill="black"/>
<path fill-rule="evenodd" clip-rule="evenodd" d="M401.627 528.344C402.325 528.24 402.857 528.505 403.221 529.141C393.692 538.701 384.129 548.268 374.532 557.843C373.774 558.501 372.977 558.634 372.141 558.241C382.131 548.381 391.96 538.415 401.627 528.344Z" fill="black"/>
<path fill-rule="evenodd" clip-rule="evenodd" d="M541.087 534.722C541.087 535.254 540.822 535.519 540.291 535.519C535.405 530.233 530.358 525.05 525.149 519.973C524.352 519.441 523.555 519.441 522.758 519.973C505.273 537.201 488.007 554.741 470.959 572.592C474.667 576.835 478.386 581.087 482.116 585.349C481.584 585.88 481.053 585.88 480.522 585.349C476.924 581.616 473.205 578.028 469.365 574.585C461.232 582.325 453.263 590.164 445.458 598.105C444.984 598.475 444.453 598.608 443.864 598.503C469.433 571.725 495.598 545.149 522.36 518.777C521.102 515.895 519.11 513.371 516.383 511.203C519.263 512.461 521.787 514.454 523.954 517.182C536.543 504.246 549.294 491.49 562.206 478.913C562.604 479.179 563.003 479.445 563.401 479.711C550.407 492.18 537.656 504.936 525.149 517.98C530.457 523.556 535.77 529.136 541.087 534.722Z" fill="black"/>
<path fill-rule="evenodd" clip-rule="evenodd" d="M540.29 535.519C505.78 572.273 467.528 604.296 425.535 631.59C415.978 637.3 406.149 642.482 396.049 647.137C402.121 640.531 408.496 634.153 415.175 628.002C417.311 630.349 417.842 630.083 416.769 627.205C417.811 625.498 419.006 623.904 420.355 622.421C428.946 615.024 436.782 607.051 443.864 598.503C444.453 598.608 444.984 598.475 445.458 598.105C453.263 590.164 461.232 582.325 469.365 574.585C473.205 578.028 476.924 581.616 480.522 585.349C481.053 585.88 481.584 585.88 482.116 585.349C478.386 581.087 474.667 576.835 470.959 572.592C488.006 554.741 505.273 537.201 522.758 519.973C523.555 519.441 524.352 519.441 525.149 519.973C530.358 525.05 535.405 530.233 540.29 535.519Z" fill="black"/>
<path fill-rule="evenodd" clip-rule="evenodd" d="M323.53 608.071C323.272 603.136 323.538 598.352 324.327 593.72C324.066 597.478 324.332 601.198 325.123 604.882C336.184 594.216 347.208 583.32 358.195 572.194C358.329 572.459 358.461 572.725 358.594 572.991C347.176 584.945 335.488 596.639 323.53 608.071Z" fill="black"/>
<path fill-rule="evenodd" clip-rule="evenodd" d="M321.936 624.813C321.919 630.294 321.388 635.609 320.342 640.759C320.26 635.269 320.791 629.953 321.936 624.813Z" fill="black"/>
<path fill-rule="evenodd" clip-rule="evenodd" d="M309.185 732.444C309.399 733.719 309.132 734.782 308.388 735.633C304.871 737.881 301.151 741.203 297.231 745.599C296.7 746.131 296.169 746.131 295.637 745.599C298.56 742.543 301.481 739.486 304.404 736.43C301.525 733.019 298.337 729.83 294.841 726.863C295.241 726.049 295.771 725.916 296.434 726.465C299.489 729.521 302.544 732.577 305.599 735.633C306.451 734.113 307.646 733.049 309.185 732.444Z" fill="black"/>
<path d="M539.562 499.374C541.96 499.374 544.865 496.677 546.568 495.195C548.223 493.755 549.287 491.558 550.645 489.851C551.495 488.782 552.337 487.715 553.174 486.637C553.326 486.443 554.24 485.25 554.24 485.589" stroke="black" stroke-width="3" stroke-linecap="round"/>
<path d="M404.679 635.444C404.679 636.274 404.441 637.214 405.579 636.889C405.735 636.845 405.737 636.446 405.942 636.358C406.011 636.328 405.498 636.91 405.404 636.99C405.002 637.33 404.662 637.795 404.222 638.078C403.61 638.473 403.091 639.156 402.409 639.409C402.07 639.534 401.645 639.64 401.354 639.866C400.848 640.26 400.565 640.904 400.152 641.317C399.668 641.801 399.363 642.511 398.755 642.849C398.511 642.985 397.934 643.601 397.788 643.857C397.547 644.278 397.316 644.558 396.968 644.906C396.656 645.218 395.924 645.605 395.49 645.605" stroke="black" stroke-linecap="square"/>
<path d="M409.152 635.444C409.152 635.021 409.152 634.598 409.152 634.174C409.152 633.541 409.293 633.267 408.608 633.267C408.19 633.267 407.89 633.222 407.675 633.63C407.275 634.385 407.019 635.102 406.493 635.807C405.12 637.646 403.147 639.141 401.529 640.76C400.794 641.494 399.683 642.316 398.755 642.728C398.128 643.007 397.152 643.593 396.646 644.099C396.145 644.6 395.814 645.348 395.343 645.82C394.907 646.255 394.365 646.409 393.858 646.814C393.562 647.051 393.229 647.172 392.951 647.419C392.618 647.715 392.448 647.791 392.951 647.54" stroke="black"/>
<path d="M393.118 647.546C393.397 647.546 393.432 647.264 393.628 647.129C393.754 647.043 393.854 646.924 394 646.868C394.132 646.817 394.292 646.721 394.404 646.633C394.53 646.535 394.676 646.465 394.805 646.371C395.045 646.196 395.31 646.153 395.588 646.063C395.68 646.034 395.73 645.994 395.802 645.936C395.855 645.892 395.956 645.867 395.997 645.816C396.022 645.785 396.085 645.762 396.12 645.74C396.298 645.627 396.481 645.507 396.678 645.433" stroke="black"/>
<path d="M396.406 645.978C396.075 645.978 395.81 646.084 395.51 646.234C395.354 646.312 395.2 646.426 395.105 646.574C395.059 646.645 395.002 646.698 394.924 646.737C394.845 646.777 394.782 646.853 394.699 646.885C394.49 646.965 394.318 647.113 394.131 647.23C393.965 647.335 393.806 647.436 393.626 647.512C393.483 647.572 393.365 647.682 393.204 647.682" stroke="black"/>
<path d="M420.797 620.042C418.496 621.298 417.651 623.774 415.493 624.974C414.073 625.763 413.819 627.589 412.599 628.351C410.778 629.49 408.88 632.098 407.562 633.792C406.112 635.658 409.299 632.01 409.706 631.648C413.085 628.643 416.698 625.961 420.529 623.661C424.298 621.399 418.965 629.019 417.18 629.879C416.622 630.148 412.41 632.739 411.742 631.997C409.27 629.248 415.168 624.62 416.457 623.044C417.084 622.278 420.744 618.711 420.797 621.115C420.876 624.644 419.99 631.019 416.457 632.693C413.809 633.948 413.761 631.757 413.59 629.45C413.422 627.176 413.158 624.867 415.734 624.867C417.404 624.867 416.939 627.136 416.939 628.244C416.939 629.962 415.01 630.074 415.01 628.485C415.01 626.152 415.01 626.511 415.01 628.727" stroke="black"/>
<path d="M474.704 348.758C472.848 351.245 471.112 353.874 469.147 356.277C468.72 356.799 468.274 357.479 467.688 357.837C467.283 358.084 466.919 358.355 466.428 358.297C465.745 358.216 466.733 355.283 466.908 354.967C468.241 352.567 471.145 350.862 473.184 349.118C473.45 348.891 475.633 346.912 475.323 346.968C474.203 347.172 473.669 347.607 472.385 347.418C469.09 346.934 465.474 344.982 462.73 343.129C462.154 342.739 461.969 342.563 461.931 341.919C461.912 341.605 460.329 341.031 460.042 340.839C459.251 340.312 458.343 339.844 457.653 339.18C457.125 338.67 456.38 338.52 455.854 338.1C455.091 337.489 454.549 336.607 453.656 336.16" stroke="black"/>
<path d="M454.082 335.043C454.082 335.229 453.885 335.357 453.775 335.498C453.587 335.74 453.431 336.008 453.279 336.273C453.152 336.495 453.049 336.736 452.938 336.968C452.742 337.379 452.538 337.784 452.353 338.201C452.28 338.366 452.163 338.538 452.12 338.713" stroke="black"/>
<path d="M455.788 335.014C455.492 335.014 455.22 334.969 454.962 335.114C454.766 335.224 454.628 335.337 454.537 335.541C454.457 335.722 454.282 335.757 454.155 335.884C454.033 336.006 453.879 336.099 453.755 336.224C453.572 336.407 453.378 336.572 453.194 336.756C453.085 336.865 452.979 336.973 452.859 337.069C452.755 337.153 452.705 337.288 452.603 337.37C452.443 337.498 452.269 337.707 452.063 337.768C451.931 337.807 451.753 337.91 451.693 338.03" stroke="black"/>
<path d="M455.589 334.531C455.577 334.579 455.278 334.644 455.226 334.667C455.095 334.723 454.962 334.75 454.828 334.793C454.635 334.855 454.477 335.013 454.316 335.128C454.118 335.27 454.02 335.554 453.869 335.738C453.754 335.879 453.618 336.002 453.483 336.124C453.269 336.317 453.023 336.522 452.79 336.69C452.649 336.791 452.375 336.894 452.319 337.063" stroke="black"/>
<path d="M404.999 417.131C404.406 418.031 403.763 418.921 403.349 419.924C403.268 420.12 403.118 420.284 402.972 420.434C402.783 420.627 402.634 420.839 402.477 421.058C402.296 421.311 402.05 421.603 401.95 421.902" stroke="black"/>
<path d="M403.922 417.154C403.922 417.351 403.782 417.516 403.741 417.702C403.684 417.957 403.575 418.187 403.465 418.423C403.293 418.792 403.004 419.093 402.798 419.443C402.698 419.614 402.605 419.792 402.544 419.981C402.389 420.462 402.212 420.936 401.997 421.393C401.871 421.662 401.815 421.915 401.744 422.2" stroke="black"/>
<path d="M403.624 417.108C403.604 417.322 403.473 417.576 403.393 417.776C403.297 418.015 403.24 418.256 403.119 418.484C403.07 418.577 402.985 418.66 402.924 418.748C402.788 418.945 402.691 419.17 402.578 419.381C402.332 419.843 402.117 420.321 401.886 420.791C401.811 420.943 401.778 421.127 401.688 421.27C401.607 421.397 401.583 421.666 401.583 421.81" stroke="black"/>
<path d="M403.692 416.604C403.666 416.819 403.712 417.098 403.624 417.31C403.57 417.439 403.514 417.567 403.468 417.699C403.378 417.96 403.197 418.147 403.056 418.375C402.981 418.495 402.844 418.661 402.844 418.805" stroke="black"/>
<path d="M517.908 301.519C517.619 301.936 517.385 302.379 517.142 302.821C516.888 303.28 516.646 303.787 516.449 304.273C516.208 304.866 515.89 305.417 515.634 306.002C515.596 306.088 515.547 306.316 515.476 306.352" stroke="black"/>
<path d="M518.429 301.832C518.429 302.233 518.302 302.506 518.151 302.875C518.061 303.096 517.949 303.302 517.891 303.535C517.831 303.773 517.758 304.038 517.663 304.264C517.51 304.626 517.303 304.991 517.072 305.308C516.936 305.496 516.8 305.679 516.727 305.9" stroke="black"/>
<path d="M517.039 302.84C517.039 303.686 517.105 304.553 517.037 305.397C516.985 306.055 516.242 306.361 515.773 306.699C515.479 306.911 515.219 307.134 514.946 307.375C514.829 307.48 514.541 307.85 514.371 307.866C514.309 307.872 514.456 307.575 514.468 307.561C514.901 307.027 515.522 306.606 516.086 306.228C516.437 305.992 516.883 305.794 517.178 305.482C517.24 305.417 517.431 305.065 517.283 305.065" stroke="black"/>
<path d="M536.961 307.619C536.935 307.835 536.79 308.059 536.699 308.252C536.612 308.438 536.522 308.624 536.441 308.813C536.366 308.987 536.239 309.113 536.135 309.27C536.081 309.35 536.02 309.425 535.964 309.504C535.863 309.646 535.789 309.814 535.714 309.97C535.481 310.454 535.249 310.944 535.05 311.443" stroke="black"/>
<path d="M536.823 307.894C536.807 307.896 536.803 307.913 536.793 307.924C536.739 307.984 536.675 308.035 536.617 308.09C536.469 308.228 536.332 308.38 536.18 308.513C536.035 308.64 535.834 308.799 535.771 308.988C535.718 309.148 535.639 309.294 535.563 309.444C535.468 309.631 535.362 309.81 535.284 310.005C535.228 310.146 535.199 310.304 535.132 310.439" stroke="black"/>
<path d="M537.14 308.472C537.14 308.517 537.077 308.539 537.045 308.56C536.895 308.661 536.748 308.764 536.593 308.857C536.313 309.023 536.063 309.237 535.864 309.497C535.793 309.591 535.766 309.73 535.707 309.834C535.639 309.953 535.591 310.076 535.531 310.199C535.514 310.234 535.49 310.261 535.49 310.301" stroke="black" stroke-linecap="round"/>
<path d="M536.864 307.55C536.853 307.654 536.668 307.688 536.589 307.732C536.501 307.781 536.498 307.849 536.471 307.932C536.415 308.099 536.325 308.247 536.246 308.403C536.153 308.586 536.075 308.777 535.971 308.953C535.823 309.202 535.68 309.46 535.545 309.716C535.293 310.193 535.174 310.736 535.091 311.264" stroke="black" stroke-linecap="round"/>
<path d="M559.743 313.062C557.921 314.177 556.021 315.229 554.281 316.476C553.466 317.061 553.086 317.974 552.474 318.74C551.836 319.537 551.317 320.479 550.59 321.206C548.152 323.646 545.836 326.233 543.764 328.997C542.611 330.535 542.904 329.024 542.904 327.859C542.904 326.049 543.452 324.528 544.042 322.851C544.691 321.006 545.367 319.183 546.09 317.374C546.689 315.874 547.582 314.488 548.138 312.961C548.573 311.762 547.075 312.701 546.545 313.062C544.276 314.603 542.432 317.022 540.527 318.968C539.383 320.138 538.179 321.27 536.988 322.395C536.217 323.123 536.525 320.674 536.545 320.334C536.685 317.957 538.871 316.299 539.276 314.074C539.322 313.821 539.944 311.56 539.491 311.746C538.921 311.981 538.793 312.151 538.125 312.151" stroke="black" stroke-width="3" stroke-linecap="round"/>
<path d="M453.705 339.014C457.165 339.187 459.981 343.244 462.238 345.502C464.465 347.729 467.411 349.083 469.633 351.307C470.283 351.956 471.042 352.367 471.783 352.9C473.082 353.836 474.219 355.058 475.449 356.087C478.492 358.637 479.648 361.745 481.289 365.244C481.978 366.713 482.751 368.168 483.501 369.607C483.821 370.22 484.078 370.835 484.664 371.239C487.319 373.064 489.844 375.497 492.11 377.765C493.389 379.044 494.382 380.611 495.915 381.672C496.881 382.341 497.889 382.762 498.76 383.633" stroke="black" stroke-width="3" stroke-linecap="round"/>
<path d="M503.083 387.047C503.927 387.047 504.815 387.169 505.308 387.958C505.688 388.566 506.749 388.678 507.179 389.324" stroke="black" stroke-width="3" stroke-linecap="round"/>
<path d="M506.724 388.641C505.615 388.641 504.463 387.373 503.652 386.719C501.026 384.6 498.498 382.954 496.307 380.269C495.155 378.856 494.398 377.11 493.046 375.88C490.913 373.941 488.791 371.812 486.244 370.429C485.709 370.138 485.012 369.18 484.879 368.583C484.736 367.937 484.529 367.333 484.146 366.787C483.358 365.666 483.065 364.24 482.502 362.993C479.758 356.905 478.742 350.037 475.461 344.186C475.042 343.439 474.686 342.428 473.729 342.428C472.772 342.428 472.341 343.036 472.023 343.921C471.072 346.563 470.586 349.405 469.861 352.116C469.702 352.71 469.145 354.175 469.735 352.799C469.843 352.546 468.955 353.185 468.9 353.229C467.428 354.413 466.032 355.686 464.627 356.947C462.023 359.284 458.666 360.685 456.208 363.144C455.105 364.248 453.919 365.261 452.782 366.331C451.066 367.947 448.773 369.014 447.131 370.657C444.113 373.676 441.092 376.91 438.358 380.193C437.13 381.667 435.75 382.917 434.705 384.543C432.51 387.959 429.116 391 425.957 393.51C424.703 394.506 423.323 395.538 422.303 396.786C420.913 398.485 419.159 399.978 417.993 401.845C417.256 403.024 416.344 404.015 415.704 405.259C415.32 406.008 414.885 406.938 414.44 407.637C413.645 408.887 412.871 410.124 411.963 411.292C411.093 412.411 410.058 413.425 409.333 414.694C408.887 415.475 408.068 416.705 407.285 417.097" stroke="black" stroke-width="3" stroke-linecap="round"/>
<path d="M441.417 383.633C441.417 381.221 443.549 379.085 444.881 377.259C445.892 375.872 446.746 374.208 447.561 372.706C448.025 371.85 448.84 371.198 449.521 370.518C450.714 369.324 451.866 367.863 453.376 367.065C453.527 366.985 454.489 366.515 454.603 366.913C454.823 367.684 455.751 366.331 456.044 366.053C459.176 363.085 462.692 360.518 465.942 357.681C469.04 354.976 472.172 352.311 475.272 349.612C476.836 348.25 478.44 346.729 479.785 345.135C481.495 343.107 483.569 340.953 484.765 338.558C485.045 337.998 486.558 334.547 486.927 334.916" stroke="black" stroke-width="3" stroke-linecap="round"/>
<path d="M512.412 307.598C512.07 307.641 511.396 308.16 511.148 308.408C510.463 309.094 509.597 309.631 508.949 310.279C507.861 311.368 507.178 312.348 506.37 313.618C505.301 315.299 504.319 317.163 502.906 318.576C501.904 319.579 500.743 320.469 499.644 321.396C496.744 323.845 493.8 326.304 491.023 328.883C489.348 330.439 488.073 332.304 486.244 333.727C483.17 336.119 481.184 339.089 478.735 342.074C476.903 344.308 474.115 346.209 472.819 348.803" stroke="black" stroke-width="3" stroke-linecap="round"/>
<path d="M475.176 359.773C475.176 357.242 472.372 353.507 471.241 351.244" stroke="black" stroke-width="3" stroke-linecap="round"/>
<path d="M439.109 604.476C438.595 606.79 434.041 608.106 432.406 609.578C430.907 610.928 427.881 611.719 425.994 612.348" stroke="black" stroke-width="3" stroke-linecap="round"/>
<path d="M397.179 643.752C397.548 643.706 397.949 642.844 397.949 642.519" stroke="black" stroke-width="3" stroke-linecap="round"/>
<path d="M397.949 642.365C397.949 640.79 398.949 639.605 399.558 638.213C400.112 636.946 400.965 636.483 402.262 635.979C402.72 635.8 403.186 635.759 403.186 636.295C403.186 636.622 403.243 638.057 403.177 637.828C403.091 637.527 401.763 637.952 401.628 637.99C401.403 638.054 399.212 638.975 399.874 638.975C400.712 638.975 401.81 638.161 402.484 637.742C403.79 636.932 404.791 636.031 405.958 635.045C407.26 633.947 408.52 632.56 409.732 631.347C410.857 630.222 412.127 629.099 413.343 628.034C414.83 626.732 416.087 625.171 417.588 623.865C418.224 623.311 419.047 622.512 419.855 622.212C420.198 622.086 421.192 621.664 420.831 621.716C417.993 622.121 416.238 625.253 415.046 627.572C414.92 627.817 414.803 627.998 414.73 628.257C414.655 628.516 413.075 628.68 412.856 628.753C409.455 629.887 406.217 631.554 403.066 633.239C401.455 634.1 399.799 634.911 398.257 635.893C397.523 636.36 396.898 636.664 396.408 637.4C395.65 638.537 395.33 639.025 395.33 640.362C395.33 641.137 394.84 641.811 394.526 642.519C394.376 642.856 394.438 643.192 394.286 643.512C394.227 643.638 393.811 644.968 394.218 644.642C394.5 644.417 394.126 644.974 393.944 644.985C393.428 645.015 393.133 645.391 392.712 645.601" stroke="black" stroke-width="3" stroke-linecap="round"/>
<path d="M510.196 305.672C510.45 305.704 510.421 312.391 510.421 313.582C510.421 314.105 510.471 312.53 510.596 312.021C510.775 311.286 511.063 310.598 511.32 309.892C511.529 309.315 511.528 308.53 512.106 308.144" stroke="black" stroke-width="3" stroke-linecap="square"/>
<path d="M556.697 318.033C554.104 318.033 551.397 318.735 548.885 319.381C548.382 319.511 548.022 319.707 547.936 320.243C547.666 321.935 547.241 323.608 547.044 325.318C546.926 326.338 546.72 326.461 547.762 326.461C549.135 326.461 550.225 326.392 550.432 324.863C550.53 324.143 550.7 322.867 551.462 322.528C551.826 322.366 551.65 321.505 551.637 321.229C551.519 318.707 548.991 316.836 547.175 315.448C545.87 314.451 544.574 313.629 543.05 313.032C542.219 312.707 541.442 312.302 540.523 312.302C540.213 312.302 539.233 312.313 539.063 312.015C538.768 311.499 538.118 311.238 537.603 311.066" stroke="black" stroke-width="3" stroke-linecap="square"/>
<path d="M506.211 386.527C506.211 387.789 507.542 388.629 507.542 389.95" stroke="black" stroke-width="3" stroke-linecap="square"/>
<path d="M439.978 602.673C435.227 606.951 430.139 610.6 425.481 615.001C423.469 616.902 421.713 619.376 419.682 621.528C416.233 625.181 412.541 631.218 408.085 633.695C406.012 634.847 402.321 638.207 400.111 638.207" stroke="black" stroke-width="10" stroke-linecap="round"/>
<path d="M400.111 632.405C397.597 635.234 396.887 639.457 393.587 641.108" stroke="black" stroke-width="10" stroke-linecap="round"/>
<path d="M494.343 324.204C494.047 327.462 491.82 330.83 490.316 333.631C487.444 338.981 484.285 344.193 481.336 349.504C479.494 352.821 477.677 355.461 475.174 357.965C472.907 360.233 470.495 362.162 467.684 363.927C465.581 365.248 461.724 371.181 461.724 366.667C461.724 360.707 462.434 355.815 465.348 350.713C466.276 349.089 467.362 347.753 466.758 345.637C466.507 344.758 462.209 345.234 461.362 345.234C459.476 345.234 459.207 342.805 457.697 342.373C456.1 341.917 455.625 339.367 456.811 341.608C458.062 343.971 459.991 346.803 461.885 348.699C466.629 353.444 474.626 357.126 480.571 360.1C490.59 365.112 492.652 376.071 501.592 381.332C502.957 382.135 502.948 383.449 504.129 384.394C505.113 385.181 499.606 381.646 498.893 381.05C492.743 375.901 486.612 370.496 480.248 365.62C474.2 360.984 467.11 355.317 459.55 353.372C455.141 352.238 456.476 353.082 455.764 356.998C455.03 361.038 455.534 369.188 451.939 372.066C450.448 373.258 448.838 373.999 447.509 375.329C444.541 378.299 443.134 380.879 440.703 384.353C438.616 387.337 435.479 395.038 431.28 395.271C427.445 395.485 423.865 401.965 421.494 404.336C419.186 406.645 416.797 408.713 414.447 411.064C412.68 412.833 410.719 416.797 408.809 417.752" stroke="black" stroke-width="10" stroke-linecap="round"/>
<path d="M563.205 306.799C557.945 306.799 554.605 308.927 550.56 312.238C548.009 314.326 546.477 317.702 543.271 319.127C540.391 320.408 540.009 323.947 540.009 318.402C540.009 315.822 541.306 313.04 543.634 311.876" stroke="black" stroke-width="10" stroke-linecap="round"/>
<path d="M501.592 316.227C501.592 312.732 503.105 312.013 506.263 311.11C507.683 310.704 506.928 309.19 507.552 308.411C508.424 307.32 509.445 307.342 510.29 306.074" stroke="black" stroke-width="10" stroke-linecap="round"/>
<ellipse cx="508.9" cy="390.608" rx="8.41429" ry="7.97468" fill="black"/>
<ellipse cx="479.671" cy="342.759" rx="8.41429" ry="7.97468" fill="black"/>
<ellipse cx="458.414" cy="340.987" rx="8.41429" ry="7.97468" fill="black"/>
<ellipse cx="508.457" cy="303.772" rx="9.74286" ry="9.74684" fill="black"/>
<line y1="-0.5" x2="4.51805" y2="-0.5" transform="matrix(-0.196039 0.980596 -0.980565 -0.196193 518.2 301.114)" stroke="black"/>
<line y1="-0.5" x2="4.51805" y2="-0.5" transform="matrix(-0.196039 0.980596 -0.980565 -0.196193 518.2 300.228)" stroke="black"/>
<line y1="-0.5" x2="8.40571" y2="-0.5" transform="matrix(-0.316112 0.948722 -0.948645 -0.316344 519.086 300.228)" stroke="black"/>
<line y1="-0.5" x2="8.85946" y2="-0.5" transform="matrix(-0.599843 0.800118 -0.799882 -0.600157 538.572 303.772)" stroke="black"/>
<ellipse cx="589.943" cy="316.177" rx="56.6857" ry="24.8101" fill="black"/>
</g>
<defs>
<clipPath id="clip0_3206_2">
<rect width="1024" height="1024" fill="white"/>
</clipPath>
</defs>
</svg>
