<svg xmlns="http://www.w3.org/2000/svg" width="16" height="16" fill="none"><path d="M14.926 4a8 8 0 0 0-6.928-4A8 8 0 0 0 1.07 4l.48 8.64L14.926 4z" fill="url(#A)"/><path d="M4.536 10L1.072 4A8 8 0 0 0 0 8a8 8 0 0 0 4 6.928A8 8 0 0 0 8 16l7.84-8-11.304 2z" fill="url(#B)"/><path d="M11.464 10L8 16a8 8 0 0 0 6.927-4.001A8 8 0 0 0 14.926 4H8l3.464 6z" fill="url(#C)"/><path d="M8 12a4 4 0 0 0 2.828-1.172A4 4 0 0 0 12 8a4 4 0 0 0-1.172-2.828A4 4 0 0 0 8 4a4 4 0 0 0-4 4 4 4 0 0 0 4 4z" fill="#fff"/><path d="M8 11.168a3.17 3.17 0 0 0 2.24-.928c.294-.294.527-.643.687-1.028a3.17 3.17 0 0 0 0-2.425c-.159-.384-.393-.734-.687-1.028A3.17 3.17 0 0 0 8 4.832 3.17 3.17 0 0 0 4.832 8 3.17 3.17 0 0 0 8 11.168h0z" fill="#1a73e8"/><defs><linearGradient id="A" x1="1.072" y1="5" x2="14.926" y2="5" gradientUnits="userSpaceOnUse"><stop stop-color="#d93025"/><stop offset="1" stop-color="#ea4335"/></linearGradient><linearGradient id="B" x1="8.866" y1="15.499" x2="1.938" y2="3.499" gradientUnits="userSpaceOnUse"><stop stop-color="#1e8e3e"/><stop offset="1" stop-color="#34a853"/></linearGradient><linearGradient id="C" x1="6.832" y1="16" x2="13.76" y2="4.021" gradientUnits="userSpaceOnUse"><stop stop-color="#fcc934"/><stop offset="1" stop-color="#fbbc04"/></linearGradient></defs></svg>