<svg xmlns="http://www.w3.org/2000/svg" xmlns:xlink="http://www.w3.org/1999/xlink" width="16" height="16" fill="none"><g clip-path="url(#G)"><use xlink:href="#H" fill="url(#A)"/><use xlink:href="#H" opacity=".35" fill="url(#B)"/><use xlink:href="#I" fill="url(#C)"/><use xlink:href="#I" opacity=".41" fill="url(#D)"/><use xlink:href="#J" fill="url(#E)"/><use xlink:href="#J" fill="url(#F)"/></g><defs><linearGradient id="A" x1="3.669" y1="11.063" x2="14.819" y2="11.063" xlink:href="#K"><stop stop-color="#0c59a4"/><stop offset="1" stop-color="#114a8b"/></linearGradient><radialGradient id="B" cx="0" cy="0" r="1" gradientTransform="matrix(5.9625,0,0,5.66437,9.82501,11.1466)" xlink:href="#K"><stop offset=".7" stop-opacity="0"/><stop offset=".9" stop-opacity=".5"/><stop offset="1"/></radialGradient><linearGradient id="C" x1="9.544" y1="6.225" x2="2.588" y2="13.806" xlink:href="#K"><stop stop-color="#1b9de2"/><stop offset=".2" stop-color="#1595df"/><stop offset=".7" stop-color="#0680d7"/><stop offset="1" stop-color="#0078d4"/></linearGradient><radialGradient id="D" cx="0" cy="0" r="1" gradientTransform="matrix(1.3424929310055436,-8.86050365312831,7.158390147102454,1.0845984095353107,4.40969,12.4335)" xlink:href="#K"><stop offset=".8" stop-opacity="0"/><stop offset=".9" stop-opacity=".5"/><stop offset="1"/></radialGradient><radialGradient id="E" cx="0" cy="0" r="1" gradientTransform="translate(1.61812 2.95725) rotate(92.2906) scale(12.6601 26.9634)" xlink:href="#K"><stop stop-color="#35c1f1"/><stop offset=".1" stop-color="#34c1ed"/><stop offset=".2" stop-color="#2fc2df"/><stop offset=".3" stop-color="#2bc3d2"/><stop offset=".7" stop-color="#36c752"/></radialGradient><radialGradient id="F" cx="0" cy="0" r="1" gradientTransform="matrix(1.7027495202591572,5.838000139924391,-4.747459313786457,1.3846752098749437,15.0038,4.83125)" xlink:href="#K"><stop stop-color="#66eb6e"/><stop offset="1" stop-color="#66eb6e" stop-opacity="0"/></radialGradient><clipPath id="G"><path fill="#fff" d="M0 0h16v16H0z"/></clipPath><path id="H" d="M14.444 11.906a5.86 5.86 0 0 1-.662.294c-.718.267-1.478.403-2.244.4-2.956 0-5.531-2.031-5.531-4.644A1.97 1.97 0 0 1 7.031 6.25c-2.675.112-3.362 2.9-3.362 4.531 0 4.625 4.256 5.088 5.175 5.088.494 0 1.238-.144 1.688-.287l.081-.025a8.02 8.02 0 0 0 4.163-3.3.25.25 0 0 0-.033-.301.25.25 0 0 0-.299-.049h0z"/><path id="I" d="M6.606 15.081a4.95 4.95 0 0 1-1.419-1.331c-.434-.594-.733-1.276-.876-1.998s-.125-1.466.05-2.181.506-1.382.967-1.956S6.371 6.575 7.031 6.25c.2-.094.531-.256.975-.25.312.002.62.077.898.218s.521.344.708.595c.251.338.389.747.394 1.169 0-.013 1.531-4.975-5-4.975-2.744 0-5 2.6-5 4.887-.011 1.208.247 2.404.756 3.5a8 8 0 0 0 9.775 4.188 4.72 4.72 0 0 1-3.925-.5h-.006z"/><path id="J" d="M9.525 9.3c-.056.063-.213.156-.213.35 0 .162.106.325.3.456.894.625 2.587.538 2.594.538.666-.001 1.32-.18 1.894-.519s1.056-.82 1.39-1.4.509-1.237.51-1.906c.019-1.4-.5-2.331-.706-2.744C13.963 1.488 11.106 0 8 0a8 8 0 0 0-5.617 2.303A8 8 0 0 0 0 7.888c.031-2.281 2.3-4.125 5-4.125.219 0 1.469.019 2.625.625a4.54 4.54 0 0 1 1.931 1.831c.381.662.45 1.506.45 1.844s-.169.831-.487 1.244l.006-.006z"/><linearGradient id="K" gradientUnits="userSpaceOnUse"/></defs></svg>