<svg xmlns="http://www.w3.org/2000/svg" xmlns:xlink="http://www.w3.org/1999/xlink" width="16" height="16" fill="none"><path d="M15.183 5.372c-.337-.811-1.02-1.686-1.556-1.963.382.739.647 1.533.785 2.353l.001.013c-.877-2.185-2.363-3.067-3.577-4.986l-.183-.297-.085-.16c-.05-.098-.089-.201-.116-.307-.008-.017-.013-.019-.018-.02-.02.003-.022.004-.024.005l.003-.005c-1.948 1.14-2.609 3.251-2.669 4.308a3.88 3.88 0 0 0-2.135.823 2.32 2.32 0 0 0-.2-.152c-.177-.618-.184-1.273-.022-1.895A5.74 5.74 0 0 0 3.522 4.53h-.004c-.307-.39-.286-1.674-.268-1.942-.091.037-.178.083-.259.137-.271.194-.525.411-.758.649a6.77 6.77 0 0 0-.725.87v.001-.001a6.55 6.55 0 0 0-1.04 2.349l-.01.051a12.38 12.38 0 0 0-.076.484c-.07.37-.112.727-.128 1.086v.04c.003 1.94.734 3.809 2.048 5.237s3.115 2.312 5.049 2.476 3.858-.402 5.395-1.587 2.573-2.903 2.904-4.815l.035-.3c.16-1.32-.013-2.659-.503-3.895l.001.001zm-8.937 6.07l.107.053.005.003-.113-.056h0zm8.169-5.665V5.77l.001.008-.001-.001z" fill="url(#A)"/><use xlink:href="#M" fill="url(#B)"/><use xlink:href="#M" fill="url(#C)"/><path d="M11.413 6.282l.048.035a4.22 4.22 0 0 0-.72-.939C8.33 2.967 10.11.152 10.41.008l.003-.004c-1.948 1.14-2.609 3.251-2.669 4.308l.272-.014c.691.001 1.369.186 1.966.534s1.091.849 1.431 1.45h0z" fill="url(#D)"/><use xlink:href="#N" fill="url(#E)"/><use xlink:href="#N" fill="url(#F)"/><path d="M5.247 4.877l.16.106c-.177-.618-.184-1.273-.022-1.895a5.74 5.74 0 0 0-1.867 1.443c.038-.001 1.163-.021 1.728.347h0z" fill="url(#G)"/><path d="M.324 8.439c.598 3.535 3.803 6.236 7.441 6.338 3.367.095 5.518-1.859 6.406-3.765a7.02 7.02 0 0 0 .241-5.234V5.77l.001.006c.275 1.796-.638 3.535-2.067 4.714l-.004.01c-2.783 2.267-5.446 1.367-5.984 1l-.113-.056c-1.622-.775-2.293-2.253-2.149-3.521A1.99 1.99 0 0 1 2.26 6.767c.426-.261.912-.408 1.411-.428s.995.088 1.44.314a3.86 3.86 0 0 0 2.911.114c-.003-.063-1.353-.6-1.879-1.118l-.533-.511a2.32 2.32 0 0 0-.2-.152l-.16-.106c-.566-.368-1.69-.348-1.728-.347h-.004c-.307-.39-.286-1.674-.268-1.942-.091.037-.178.083-.259.137-.271.194-.525.411-.758.649a6.77 6.77 0 0 0-.728.868v.001-.001a6.55 6.55 0 0 0-1.04 2.349C.462 6.61.187 7.814.323 8.439h.001z" fill="url(#H)"/><path d="M10.741 5.378a4.22 4.22 0 0 1 .72.94l.116.095c1.758 1.621.837 3.912.768 4.074 1.428-1.177 2.341-2.917 2.067-4.714-.877-2.187-2.365-3.069-3.577-4.988l-.183-.297-.085-.16a1.41 1.41 0 0 1-.116-.307c-.008-.017-.013-.019-.018-.02-.02.003-.022.004-.024.005-.3.142-2.079 2.959.332 5.368l-.001.003z" fill="url(#I)"/><path d="M11.578 6.414c-.034-.031-.074-.063-.116-.095l-.048-.035c-.545-.378-1.212-.54-1.87-.454 2.789 1.395 2.041 6.196-1.824 6.016a3.45 3.45 0 0 1-1.009-.195l-.228-.093-.131-.062.005.003c.539.368 3.201 1.267 5.984-1l.004-.01c.069-.162.991-2.453-.768-4.074v-.001z" fill="url(#J)"/><path d="M4.525 8.955s.358-1.334 2.563-1.334c.238 0 .92-.665.933-.858a3.86 3.86 0 0 1-2.911-.114c-.445-.226-.941-.334-1.44-.314s-.985.168-1.411.428a1.99 1.99 0 0 0 1.837 1.155c-.144 1.268.527 2.745 2.149 3.521l.107.053c-.947-.489-1.729-1.414-1.826-2.537h0z" fill="url(#K)"/><path d="M15.183 5.372c-.337-.811-1.02-1.686-1.556-1.963a8.06 8.06 0 0 1 .785 2.353l.001.013c-.877-2.185-2.363-3.067-3.577-4.986l-.183-.297-.085-.16c-.05-.098-.089-.201-.116-.307-.008-.017-.013-.019-.018-.02-.02.003-.022.004-.024.005l.003-.005c-1.948 1.14-2.609 3.251-2.669 4.308l.273-.014c.691.001 1.369.186 1.966.534s1.091.849 1.431 1.45c-.545-.378-1.212-.54-1.87-.454 2.789 1.395 2.041 6.196-1.824 6.016a3.45 3.45 0 0 1-1.009-.195l-.228-.093-.131-.062.005.003-.113-.056.107.053c-.947-.489-1.729-1.415-1.826-2.537 0 0 .358-1.334 2.563-1.334.238 0 .92-.665.933-.858-.003-.063-1.353-.6-1.879-1.118l-.533-.511a2.32 2.32 0 0 0-.2-.152c-.177-.618-.184-1.273-.022-1.895a5.74 5.74 0 0 0-1.867 1.443h-.004c-.307-.39-.286-1.674-.268-1.942-.091.037-.178.083-.259.137-.271.194-.525.411-.758.649a6.77 6.77 0 0 0-.725.87v.001-.001a6.55 6.55 0 0 0-1.04 2.349l-.01.051-.089.489a9.02 9.02 0 0 0-.114 1.081v.04c.003 1.94.734 3.809 2.048 5.237s3.115 2.312 5.049 2.476 3.858-.402 5.395-1.587 2.573-2.903 2.904-4.815l.035-.3c.16-1.32-.013-2.659-.503-3.895h0zm-.769.398l.001.008-.001-.008z" fill="url(#L)"/><defs><linearGradient id="A" x1="14.156" y1="2.482" x2="1.283" y2="14.902" xlink:href="#O"><stop offset=".048" stop-color="#fff44f"/><stop offset=".111" stop-color="#ffe847"/><stop offset=".225" stop-color="#ffc830"/><stop offset=".368" stop-color="#ff980e"/><stop offset=".401" stop-color="#ff8b16"/><stop offset=".462" stop-color="#ff672a"/><stop offset=".534" stop-color="#ff3647"/><stop offset=".705" stop-color="#e31587"/></linearGradient><radialGradient id="B" cx="0" cy="0" r="1" gradientTransform="translate(13.6582 1.80421) scale(16.1661)" xlink:href="#O"><stop offset=".129" stop-color="#ffbd4f"/><stop offset=".186" stop-color="#ffac31"/><stop offset=".247" stop-color="#ff9d17"/><stop offset=".283" stop-color="#ff980e"/><stop offset=".403" stop-color="#ff563b"/><stop offset=".467" stop-color="#ff3750"/><stop offset=".71" stop-color="#f5156c"/><stop offset=".782" stop-color="#eb0878"/><stop offset=".86" stop-color="#e50080"/></radialGradient><radialGradient id="C" cx="0" cy="0" r="1" gradientTransform="matrix(16.1661,0,0,16.1661,7.65599,8.40669)" xlink:href="#O"><stop offset=".3" stop-color="#960e18"/><stop offset=".351" stop-color="#b11927" stop-opacity=".74"/><stop offset=".435" stop-color="#db293d" stop-opacity=".343"/><stop offset=".497" stop-color="#f5334b" stop-opacity=".094"/><stop offset=".53" stop-color="#ff3750" stop-opacity="0"/></radialGradient><radialGradient id="D" cx="0" cy="0" r="1" gradientTransform="translate(9.65677 -1.79714) scale(11.7104)" xlink:href="#O"><stop offset=".132" stop-color="#fff44f"/><stop offset=".252" stop-color="#ffdc3e"/><stop offset=".506" stop-color="#ff9d12"/><stop offset=".526" stop-color="#ff980e"/></radialGradient><radialGradient id="E" cx="0" cy="0" r="1" gradientTransform="translate(5.85536 12.6083) scale(7.69689)" xlink:href="#O"><stop offset=".353" stop-color="#3a8ee6"/><stop offset=".472" stop-color="#5c79f0"/><stop offset=".669" stop-color="#9059ff"/><stop offset="1" stop-color="#c139e6"/></radialGradient><radialGradient id="F" cx="0" cy="0" r="1" gradientTransform="matrix(3.967248085138835,-0.959162673096823,1.1229409538385435,4.6446608837020795,8.43793,7.01902)" xlink:href="#O"><stop offset=".206" stop-color="#9059ff" stop-opacity="0"/><stop offset=".278" stop-color="#8c4ff3" stop-opacity=".064"/><stop offset=".747" stop-color="#7716a8" stop-opacity=".45"/><stop offset=".975" stop-color="#6e008b" stop-opacity=".6"/></radialGradient><radialGradient id="G" cx="0" cy="0" r="1" gradientTransform="translate(7.45594 1.20395) scale(5.53808)" xlink:href="#O"><stop stop-color="#ffe226"/><stop offset=".121" stop-color="#ffdb27"/><stop offset=".295" stop-color="#ffc82a"/><stop offset=".502" stop-color="#ffa930"/><stop offset=".732" stop-color="#ff7e37"/><stop offset=".792" stop-color="#ff7139"/></radialGradient><radialGradient id="H" cx="0" cy="0" r="1" gradientTransform="translate(11.8576 -2.39741) scale(23.6289)" xlink:href="#O"><stop offset=".113" stop-color="#fff44f"/><stop offset=".456" stop-color="#ff980e"/><stop offset=".622" stop-color="#ff5634"/><stop offset=".716" stop-color="#ff3647"/><stop offset=".904" stop-color="#e31587"/></radialGradient><radialGradient id="I" cx="0" cy="0" r="1" gradientTransform="translate(9.89367 -1.08722) rotate(83.976) scale(17.3156 11.3641)" xlink:href="#O"><stop stop-color="#fff44f"/><stop offset=".06" stop-color="#ffe847"/><stop offset=".168" stop-color="#ffc830"/><stop offset=".304" stop-color="#ff980e"/><stop offset=".356" stop-color="#ff8b16"/><stop offset=".455" stop-color="#ff672a"/><stop offset=".57" stop-color="#ff3647"/><stop offset=".737" stop-color="#e31587"/></radialGradient><radialGradient id="J" cx="0" cy="0" r="1" gradientTransform="translate(7.45593 3.20469) scale(14.7495 14.7495)" xlink:href="#O"><stop offset=".137" stop-color="#fff44f"/><stop offset=".48" stop-color="#ff980e"/><stop offset=".592" stop-color="#ff5634"/><stop offset=".655" stop-color="#ff3647"/><stop offset=".904" stop-color="#e31587"/></radialGradient><radialGradient id="K" cx="0" cy="0" r="1" gradientTransform="translate(11.2574 4.00499) scale(16.1441)" xlink:href="#O"><stop offset=".094" stop-color="#fff44f"/><stop offset=".231" stop-color="#ffe141"/><stop offset=".509" stop-color="#ffaf1e"/><stop offset=".626" stop-color="#ff980e"/></radialGradient><linearGradient id="L" x1="14" y1="2.416" x2="3.048" y2="13.37" xlink:href="#O"><stop offset=".167" stop-color="#fff44f" stop-opacity=".8"/><stop offset=".266" stop-color="#fff44f" stop-opacity=".634"/><stop offset=".489" stop-color="#fff44f" stop-opacity=".217"/><stop offset=".6" stop-color="#fff44f" stop-opacity="0"/></linearGradient><path id="M" d="M15.183 5.372c-.337-.811-1.02-1.686-1.556-1.963.382.739.647 1.533.785 2.353v.007l.001.008a7.02 7.02 0 0 1-.241 5.234c-.889 1.907-3.039 3.861-6.406 3.765C4.129 14.674.924 11.974.325 8.438c-.109-.558 0-.84.055-1.293a5.78 5.78 0 0 0-.125 1.07v.04c.003 1.94.734 3.809 2.048 5.237s3.115 2.312 5.049 2.476 3.858-.402 5.395-1.587 2.573-2.903 2.904-4.815l.035-.3c.16-1.32-.013-2.659-.503-3.895l-.001.001z"/><path id="N" d="M8.02 6.764c-.013.193-.694.858-.933.858-2.205 0-2.563 1.334-2.563 1.334.098 1.123.88 2.049 1.826 2.537l.131.062.228.093a3.45 3.45 0 0 0 1.009.195c3.865.181 4.614-4.622 1.824-6.016.658-.086 1.324.076 1.87.454-.341-.601-.834-1.102-1.431-1.45s-1.275-.533-1.966-.534c-.092 0-.182.008-.273.014a3.88 3.88 0 0 0-2.135.823c.118.1.252.234.533.511.526.518 1.876 1.055 1.879 1.118v.002z"/><linearGradient id="O" gradientUnits="userSpaceOnUse"/></defs></svg>