<svg xmlns="http://www.w3.org/2000/svg" width="16" height="16" fill="none"><path d="M15.713 8.179a7.05 7.05 0 0 0-.861-3.372C17.22-.502 12.341.287 12.054.287c-1.005.201-2.009.524-2.87.933-3.3-.039-6.17 1.722-7.103 5.381C3.803 4.664 5.022 3.875 5.74 3.588l-.452.423a21.28 21.28 0 0 0-2.87 3.516c-.61 1.076-1.291 2.009-1.65 3.229-1.937 7.031 4.161 4.09 5.022 3.588.933.459 1.937.71 3.085.71 3.013 0 5.596-1.937 6.529-4.592h-3.659c-1.722 2.726-5.812 1.507-5.955-1.435h9.901a6.94 6.94 0 0 0 .057-.861l-.036.014zm-1.291-6.816c.595.402 1.076 1.004.251 3.157-.789-1.291-1.937-2.296-3.372-2.798.639-.309 2.224-.933 3.157-.359h-.036zM1.722 14.35c-.488-.495-.574-1.722.502-3.946a6.79 6.79 0 0 0 3.013 3.659c-.696.38-2.511 1.22-3.516.237v.05zM5.74 7.175c.055-1.578 1.435-2.87 3.157-2.87s3.085 1.291 3.157 2.87H5.812 5.74z" fill="#1ebbee"/></svg>