<svg xmlns="http://www.w3.org/2000/svg" width="16" height="16" fill="none"><g clip-path="url(#C)"><path d="M8 .001a8 8 0 0 0-8 8 8 8 0 0 0 7.619 7.99L8 16a7.97 7.97 0 0 0 5.331-2.036c-.938.622-2.034.98-3.206.98-1.905 0-3.611-.945-4.759-2.435-.885-1.044-1.457-2.588-1.497-4.32v-.377c.039-1.732.612-3.276 1.496-4.32 1.148-1.49 2.854-2.435 4.759-2.435a5.77 5.77 0 0 1 3.206.98A7.97 7.97 0 0 0 8.03.001c-.01 0-.02 0-.03 0h0z" fill="url(#A)"/><path d="M5.367 3.493c.734-.867 1.682-1.389 2.718-1.389 2.329 0 4.217 2.64 4.217 5.897s-1.888 5.897-4.217 5.897c-1.036 0-1.984-.522-2.718-1.389 1.147 1.49 2.853 2.435 4.759 2.435a5.77 5.77 0 0 0 3.206-.98A7.98 7.98 0 0 0 16 8.001a7.98 7.98 0 0 0-2.668-5.963 5.77 5.77 0 0 0-3.206-.98c-1.905 0-3.611.945-4.759 2.435" fill="url(#B)"/></g><defs><linearGradient id="A" x1="6.666" y1=".262" x2="6.666" y2="15.768" gradientUnits="userSpaceOnUse"><stop stop-color="#ff1b2d"/><stop offset=".614" stop-color="#ff1b2d"/><stop offset="1" stop-color="#a70014"/></linearGradient><linearGradient id="B" x1="10.683" y1="1.176" x2="10.683" y2="14.89" gradientUnits="userSpaceOnUse"><stop stop-color="#9c0000"/><stop offset=".7" stop-color="#ff4b4b"/></linearGradient><clipPath id="C"><path fill="#fff" d="M0 0h16v16H0z"/></clipPath></defs></svg>