<svg xmlns="http://www.w3.org/2000/svg" width="16" height="16" fill="none"><path d="M15.9 8a7.9 7.9 0 0 1-2.314 5.586A7.9 7.9 0 0 1 8 15.9 7.9 7.9 0 0 1 .1 8 7.9 7.9 0 0 1 8 .1a7.9 7.9 0 0 1 5.586 2.314A7.9 7.9 0 0 1 15.9 8h0z" fill="url(#B)" stroke="#cdcdcd" stroke-width=".093" stroke-linejoin="round"/><path d="M15.281 8A7.28 7.28 0 0 1 8 15.281 7.28 7.28 0 0 1 .719 8 7.28 7.28 0 0 1 8 .719 7.28 7.28 0 0 1 15.281 8z" fill="url(#C)"/><path d="M8 1.099c-.059 0-.106.047-.106.106v1.224c0 .059.047.106.106.106s.106-.047.106-.106V1.205c0-.059-.047-.106-.106-.106zm-.694.044c-.007-.001-.014-.001-.022 0-.059.006-.101.058-.095.117l.054.512c.006.059.058.101.117.095s.101-.058.095-.117l-.053-.512c-.005-.051-.046-.09-.095-.095h0zm1.394.001c-.049.005-.09.043-.095.095l-.054.512c-.006.058.036.111.095.117s.11-.036.117-.094l.054-.512c.006-.058-.036-.111-.095-.117-.007-.001-.014-.001-.022 0h0zm-2.107.103c-.007 0-.014.001-.021.002-.058.012-.094.068-.082.126l.254 1.198c.012.058.068.094.126.082s.094-.068.082-.126L6.697 1.33c-.011-.05-.055-.085-.104-.084h0zm2.82.001c-.049-.001-.094.034-.104.084l-.254 1.198c-.012.058.024.114.082.126s.114-.024.126-.082l.254-1.198c.012-.058-.024-.114-.082-.126-.007-.002-.014-.002-.021-.002h0zm-3.501.191c-.014-.001-.028 0-.042.005-.056.018-.086.078-.068.134l.159.49c.018.056.078.086.134.068s.086-.078.068-.134l-.159-.49c-.014-.042-.051-.07-.092-.073h0zm4.178 0c-.041.004-.078.031-.092.073l-.159.49c-.018.056.012.116.068.134s.116-.012.134-.068l.159-.49c.018-.056-.012-.116-.068-.134-.014-.005-.028-.006-.042-.005h0zm-4.851.246c-.014 0-.028.003-.041.009-.054.024-.078.086-.054.14l.497 1.119c.024.054.086.078.14.054s.078-.086.054-.14l-.497-1.119c-.018-.04-.058-.064-.099-.063h0zm5.532.004c-.041-.001-.081.023-.099.063l-.499 1.118c-.024.054 0 .116.054.14s.116 0 .14-.054l.499-1.118c.024-.054 0-.116-.054-.14-.013-.006-.027-.009-.041-.009h0zm-6.157.327c-.02-.002-.041.003-.06.014-.051.029-.068.094-.039.145l.258.446c.029.051.094.068.145.039s.068-.094.039-.145l-.258-.446c-.018-.032-.051-.051-.085-.053h0zm6.774 0c-.034.002-.066.021-.084.053l-.258.446c-.029.051-.012.116.039.145s.115.012.145-.039l.258-.446c.029-.051.012-.116-.039-.145-.019-.011-.04-.015-.061-.014h0zm-7.38.378c-.02.001-.041.007-.059.02-.048.035-.058.101-.024.148l.719.991c.035.048.101.058.148.024s.058-.101.024-.148l-.719-.991c-.022-.03-.056-.045-.09-.044h0zm7.995.005c-.034-.001-.068.014-.09.044l-.72.99c-.035.048-.024.114.023.148s.114.024.148-.023l.72-.99c.035-.048.024-.114-.023-.148-.018-.013-.038-.02-.059-.02h0zm-8.537.449c-.027-.002-.055.008-.077.027-.044.039-.047.106-.008.15l.345.383c.039.044.106.047.15.008s.047-.106.008-.15l-.345-.383c-.02-.022-.046-.034-.073-.035h0zm9.073.001c-.027.002-.054.013-.073.035l-.345.383c-.039.044-.036.111.008.15s.111.036.15-.008l.345-.383c.039-.044.036-.111-.008-.15-.022-.02-.05-.029-.077-.027h0zm-9.593.499c-.027.002-.054.013-.073.035-.039.044-.036.111.008.15l.91.819c.044.039.111.036.15-.008s.036-.111-.008-.15l-.91-.819c-.022-.02-.049-.029-.077-.027h0zm10.115.004c-.027-.002-.055.008-.077.027l-.911.819c-.044.039-.047.106-.008.15s.106.047.15.008l.911-.819c.044-.039.047-.106.008-.15-.02-.022-.046-.034-.073-.035h0zm-10.547.552c-.034-.001-.068.014-.09.044-.035.048-.024.114.023.148l.417.303c.048.035.114.024.148-.023s.024-.114-.023-.148l-.417-.303c-.018-.013-.038-.02-.059-.02h0zm10.979.004c-.021.001-.041.007-.059.02l-.417.302c-.048.035-.058.101-.024.148s.101.058.148.024l.417-.302c.048-.035.058-.101.024-.148-.022-.03-.056-.045-.09-.044h0zm-11.383.589c-.034.002-.066.021-.084.053-.029.051-.012.116.039.145l1.06.612c.051.029.116.012.145-.039s.012-.116-.039-.145l-1.06-.612c-.019-.011-.04-.015-.061-.014h0zm11.784 0c-.02-.002-.041.003-.061.014l-1.06.612c-.051.029-.068.094-.039.145s.094.068.145.039l1.061-.612c.051-.029.068-.094.039-.145-.018-.032-.051-.051-.084-.053h0zm-12.09.632c-.041-.001-.081.023-.099.063-.024.054 0 .116.054.14l.47.21c.054.024.116 0 .14-.054s0-.116-.054-.14l-.47-.21c-.013-.006-.027-.009-.041-.009h0zm12.397.004c-.014 0-.028.003-.041.009l-.47.209c-.054.024-.078.086-.054.14s.086.078.14.054l.47-.21c.054-.024.078-.086.054-.14-.018-.04-.058-.064-.099-.063h0zm-12.67.656c-.041.003-.078.031-.092.073-.018.056.012.116.068.134l1.164.379c.056.018.116-.012.134-.068s-.012-.116-.068-.134l-1.164-.379c-.014-.005-.028-.006-.042-.005h0zm12.941.005c-.014-.001-.028 0-.042.005l-1.165.379c-.056.018-.086.078-.068.134s.078.086.134.068l1.164-.379c.056-.018.086-.078.068-.134-.014-.042-.051-.07-.092-.073h0zm-13.111.689c-.049 0-.094.034-.105.084-.012.058.024.114.082.126l.504.107c.058.012.114-.024.126-.082s-.024-.114-.082-.126l-.504-.107c-.007-.002-.014-.002-.021-.002h0zm13.279.001a.13.13 0 0 0-.021.002l-.504.107c-.057.012-.094.068-.082.126s.068.094.126.082l.504-.107c.058-.012.094-.068.082-.126-.011-.05-.055-.085-.104-.084h0zM1.232 7.18c-.049.005-.09.043-.095.095-.006.058.036.111.094.117l1.218.129c.058.006.111-.036.117-.094s-.036-.111-.094-.117L1.254 7.18c-.007-.001-.015-.001-.022 0h0zm13.537.009c-.007-.001-.014-.001-.022 0l-1.218.127c-.059.006-.101.058-.095.117s.058.101.117.095l1.218-.127c.059-.006.101-.058.095-.117-.005-.051-.046-.09-.095-.095h0zm-13.557.705c-.059 0-.106.047-.106.106s.047.106.106.106h.515c.059 0 .106-.047.106-.106s-.047-.106-.106-.106h-.515zm13.062 0c-.059 0-.106.047-.106.106s.047.106.106.106h.515c.059 0 .106-.047.106-.106s-.047-.106-.106-.106h-.515zM2.47 8.473c-.007-.001-.014-.001-.022 0L1.231 8.6c-.058.006-.101.058-.095.117s.058.101.117.095l1.218-.127c.059-.006.101-.058.095-.117-.005-.051-.046-.09-.095-.095h0zm11.059.008c-.049.005-.09.043-.095.095-.006.058.036.111.094.117l1.218.129c.059.006.111-.036.117-.094s-.036-.111-.094-.117l-1.218-.129c-.007-.001-.015-.001-.022 0h0zm-11.667.717c-.007 0-.014.001-.021.002l-.504.107c-.058.012-.094.068-.082.126s.068.094.126.082l.504-.107c.058-.012.094-.068.082-.126-.011-.05-.055-.085-.104-.084h0zm12.274.001c-.05-.001-.094.034-.104.084-.012.058.024.114.082.126l.504.107c.057.012.114-.024.126-.082s-.024-.114-.082-.126l-.504-.107c-.007-.002-.014-.002-.021-.002h0zm-11.426.418c-.014-.001-.028 0-.042.005L1.505 10c-.056.018-.086.078-.068.134s.078.086.134.068l1.164-.379c.056-.018.086-.078.068-.134-.014-.042-.051-.07-.092-.073h0zm10.576.004c-.041.003-.078.031-.092.073-.018.056.012.116.068.134l1.164.379c.056.018.116-.012.134-.068s-.012-.116-.068-.134l-1.164-.379c-.014-.005-.028-.006-.042-.005h0zm-11.021.825c-.014 0-.028.003-.041.009l-.471.21c-.054.024-.078.086-.054.14s.086.078.14.054l.471-.21c.054-.024.078-.086.054-.14-.018-.04-.058-.064-.099-.063h0zm11.464.004c-.041-.001-.081.023-.099.063-.024.054 0 .116.054.14l.47.21c.054.024.116 0 .14-.054s0-.116-.054-.14l-.47-.21c-.014-.006-.027-.009-.041-.009h0zm-10.548.23c-.02-.002-.041.003-.061.014l-1.06.612c-.051.029-.068.094-.039.145s.094.068.145.039l1.06-.612c.051-.029.068-.094.039-.145-.018-.032-.051-.051-.084-.053h0zm9.634 0c-.034.002-.066.021-.085.053-.029.051-.012.116.039.145l1.06.612c.051.029.116.012.145-.039s.012-.116-.039-.145l-1.061-.612c-.019-.011-.04-.015-.06-.014h0zm-9.898.898c-.02.001-.041.007-.059.02l-.417.302c-.048.035-.058.101-.024.148s.101.058.148.024l.417-.302c.048-.035.058-.101.024-.148-.022-.03-.056-.045-.09-.044h0zm10.16.004c-.034-.001-.068.014-.09.044-.035.048-.024.114.024.148l.417.303c.048.035.114.024.148-.023s.024-.114-.024-.148l-.417-.303c-.018-.013-.038-.02-.059-.02h0zm-9.216.037c-.027-.002-.055.008-.077.027l-.911.819c-.044.039-.047.106-.008.15s.106.047.15.008l.911-.819c.044-.039.047-.106.008-.15-.02-.022-.046-.034-.073-.035zm8.272.003c-.027.002-.054.013-.073.035-.039.044-.036.111.008.15l.91.819c.044.039.111.036.15-.008s.036-.111-.008-.15l-.91-.819c-.022-.02-.05-.029-.077-.027h0zm-7.408.778c-.034-.001-.068.014-.09.044l-.72.99c-.035.048-.024.114.023.148s.114.024.148-.023l.72-.99c.035-.048.024-.114-.023-.148-.018-.013-.038-.02-.059-.02zm6.541.004c-.021.001-.041.007-.059.02-.048.034-.058.101-.024.148l.719.991c.034.048.101.058.148.024s.058-.101.024-.148l-.719-.991c-.022-.03-.055-.045-.089-.044h0zm-7.471.153c-.027.002-.054.013-.073.035l-.345.383c-.039.044-.036.111.008.15s.111.036.15-.008l.345-.383c.039-.044.036-.111-.008-.15-.022-.02-.049-.029-.077-.027h0zm8.406 0c-.027-.002-.055.008-.077.027-.044.039-.047.106-.008.15l.345.383c.039.044.106.047.15.008s.047-.106.008-.15l-.345-.383c-.02-.022-.046-.034-.073-.035h0zm-6.47.425c-.041-.001-.081.023-.099.063l-.499 1.118c-.024.054 0 .116.054.14s.116 0 .14-.054l.499-1.118c.024-.054 0-.116-.054-.14-.013-.006-.027-.009-.041-.009zm4.528.003c-.014 0-.028.003-.041.009-.054.024-.078.086-.054.14l.497 1.119c.024.054.086.078.14.054s.078-.086.054-.14l-.497-1.119c-.018-.04-.058-.064-.099-.063h0zm-5.405.343c-.034.002-.066.021-.084.053l-.258.446c-.029.051-.012.116.039.145s.116.012.145-.039l.258-.446c.029-.051.012-.116-.039-.145-.019-.011-.04-.015-.061-.014h0zm6.288 0c-.02-.002-.041.003-.06.014-.051.029-.068.094-.039.145l.258.446c.029.051.094.068.145.039s.068-.094.039-.145l-.258-.446c-.018-.032-.05-.051-.085-.053h0zm-4.301.016c-.049-.001-.094.034-.104.084l-.254 1.198c-.012.057.024.114.082.126s.114-.024.126-.082l.254-1.198c.012-.057-.024-.114-.082-.126-.007-.002-.014-.002-.021-.002h0zm2.31.001c-.007 0-.014.001-.021.002-.058.012-.094.068-.082.126l.254 1.198c.012.057.068.094.126.082s.094-.068.082-.126l-.254-1.198c-.011-.05-.055-.085-.104-.084h0zM8 13.465c-.059 0-.106.047-.106.106v1.224c0 .059.047.106.106.106s.106-.047.106-.106v-1.224c0-.059-.047-.106-.106-.106zm-1.949.396c-.041.003-.078.031-.092.073l-.159.49c-.018.056.012.116.068.134s.116-.012.134-.068l.159-.49c.018-.056-.012-.116-.068-.134-.014-.005-.028-.006-.042-.005h0zm3.896 0c-.014-.001-.028 0-.042.005-.056.018-.086.078-.068.134l.159.49c.018.056.078.086.134.068s.086-.078.068-.134l-.159-.49c-.014-.042-.051-.069-.092-.073h0zm-2.614.273c-.049.005-.09.043-.095.095l-.054.512c-.006.059.036.111.094.117s.111-.036.117-.094l.054-.512c.006-.058-.036-.111-.094-.117-.007-.001-.015-.001-.022 0h0zm1.328.001c-.007-.001-.014-.001-.022 0-.058.006-.101.058-.095.117l.054.512c.006.058.058.101.117.095s.101-.058.095-.117l-.053-.512c-.005-.051-.046-.09-.095-.095h0z" fill="#f4f2f3"/><g opacity=".409" filter="url(#A)"><path d="M12.976 3.754L7.168 7.128l-3.672 5.781L8.868 8.93l4.108-5.176z" fill="#000"/></g><path d="M8.832 8.872L7.168 7.128l5.905-3.973-4.241 5.716z" fill="#ff5150"/><path d="M8.832 8.872L7.168 7.128l-4.241 5.716 5.905-3.973z" fill="#f1f1f1"/><path opacity=".243" d="M2.927 12.844l5.905-3.973 4.241-5.716-10.146 9.688z" fill="#000"/><defs><filter id="A" x="2.822" y="3.08" width="10.827" height="10.502" filterUnits="userSpaceOnUse" color-interpolation-filters="sRGB"><feFlood flood-opacity="0"/><feBlend in="SourceGraphic"/><feGaussianBlur stdDeviation=".337"/></filter><linearGradient id="B" x1="8" y1="15.9" x2="8" y2=".1" gradientUnits="userSpaceOnUse"><stop stop-color="#bdbdbd"/><stop offset="1" stop-color="#fff"/></linearGradient><radialGradient id="C" cx="0" cy="0" r="1" gradientUnits="userSpaceOnUse" gradientTransform="translate(8.0331 6.9384) scale(7.90004 7.90003)"><stop stop-color="#06c2e7"/><stop offset=".25" stop-color="#0db8ec"/><stop offset=".5" stop-color="#12aef1"/><stop offset=".75" stop-color="#1f86f9"/><stop offset="1" stop-color="#107ddd"/></radialGradient></defs></svg>